<svg width="19" height="18" viewBox="0 0 19 18" fill="none" xmlns="http://www.w3.org/2000/svg">
<path d="M12.348 7.03781C12.2571 7.0725 12.174 7.12462 12.1036 7.19117C12.0332 7.25773 11.9768 7.3374 11.9376 7.42559C11.8985 7.51379 11.8774 7.60877 11.8756 7.70505C11.8738 7.80134 11.8913 7.89703 11.9271 7.9866C12.1704 8.61051 12.1896 9.29806 11.9816 9.93431C11.7735 10.5706 11.3507 11.1169 10.7839 11.4821C10.2171 11.8473 9.54066 12.0091 8.86763 11.9405C8.1946 11.8719 7.56579 11.5771 7.08632 11.1053C6.60686 10.6335 6.3058 10.0134 6.23348 9.34856C6.16116 8.68374 6.32197 8.01454 6.68901 7.45283C7.05605 6.89112 7.60709 6.47095 8.24999 6.26256C8.89289 6.05418 9.58869 6.07021 10.2211 6.30797C10.4042 6.37669 10.6075 6.37069 10.7861 6.29131C10.9648 6.21192 11.1042 6.06565 11.1738 5.88467C11.2433 5.70368 11.2372 5.50281 11.1569 5.32625C11.0766 5.14969 10.9286 5.01189 10.7454 4.94317C9.798 4.58901 8.75639 4.56632 7.7941 4.87889C6.83181 5.19146 6.00693 5.82042 5.45686 6.66099C4.9068 7.50157 4.66476 8.50301 4.77106 9.49852C4.87735 10.494 5.32558 11.4235 6.04106 12.1321C6.8719 12.9521 7.99813 13.4128 9.17238 13.4128C10.3466 13.4128 11.4729 12.9521 12.3037 12.1321C12.912 11.5325 13.3309 10.771 13.5092 9.94042C13.6875 9.10981 13.6176 8.24589 13.3081 7.45382C13.273 7.36398 13.2202 7.2819 13.1529 7.21229C13.0855 7.14269 13.0049 7.08695 12.9157 7.04828C12.8264 7.00961 12.7303 6.98877 12.6329 6.98698C12.5355 6.98518 12.4386 7.00246 12.348 7.03781V7.03781Z" fill="#141E2D"/>
<path d="M14.2312 4.61475C14.6391 4.61475 14.9697 4.28799 14.9697 3.88491C14.9697 3.48184 14.6391 3.15508 14.2312 3.15508C13.8233 3.15508 13.4927 3.48184 13.4927 3.88491C13.4927 4.28799 13.8233 4.61475 14.2312 4.61475Z" fill="#141E2D"/>
<path d="M17.9238 3.88491C17.924 2.92959 17.5452 2.0123 16.8686 1.33C16.192 0.647701 15.2716 0.254815 14.3051 0.235709C10.8414 -0.0785695 7.35575 -0.0785695 3.892 0.235709C2.92282 0.235586 1.99244 0.612029 1.30162 1.28381C0.610794 1.95559 0.214919 2.86885 0.199412 3.82652C-0.0664708 7.24686 -0.0664708 10.6823 0.199412 14.1027C0.199219 15.058 0.578105 15.9753 1.25471 16.6576C1.93131 17.3399 2.85167 17.7327 3.81815 17.7519C5.56105 17.9124 7.31134 18 9.06163 18C10.8119 18 12.5401 17.9197 14.2682 17.7519C15.231 17.7425 16.1519 17.3618 16.8348 16.691C17.5177 16.0203 17.9085 15.1124 17.9238 14.161C18.2045 10.7413 18.2045 7.30467 17.9238 3.88491V3.88491ZM16.4468 14.1027C16.4468 14.6834 16.2134 15.2403 15.7979 15.6509C15.3824 16.0615 14.8189 16.2922 14.2313 16.2922H14.1574C10.7437 16.6206 7.30573 16.6206 3.892 16.2922C3.59601 16.2923 3.303 16.2338 3.03027 16.1201C2.75755 16.0064 2.51063 15.8399 2.30411 15.6304C2.09758 15.4208 1.93564 15.1725 1.82783 14.9001C1.72003 14.6277 1.66856 14.3367 1.67645 14.0443C1.41796 10.6626 1.41796 7.26654 1.67645 3.88491C1.67632 3.59176 1.73575 3.30158 1.85122 3.03156C1.9667 2.76154 2.13586 2.51719 2.34869 2.31299C2.56151 2.10879 2.81366 1.94891 3.09019 1.84282C3.36671 1.73673 3.66197 1.68659 3.95847 1.69539C5.65214 1.54455 7.35073 1.4667 9.05424 1.46184C10.7578 1.45697 12.4834 1.53482 14.2313 1.69539C14.5272 1.69528 14.8203 1.75379 15.093 1.86746C15.3657 1.98113 15.6126 2.14765 15.8192 2.35719C16.0257 2.56673 16.1876 2.81504 16.2954 3.08746C16.4032 3.35988 16.4547 3.65089 16.4468 3.94329C16.7274 7.32407 16.7274 10.7219 16.4468 14.1027V14.1027Z" fill="#141E2D"/>
</svg>
