<svg id="Слой_1" data-name="Слой 1" xmlns="http://www.w3.org/2000/svg" viewBox="0 0 1166.89 265.17"><defs><style>.cls-1{fill:#141e2d;}</style></defs><path class="cls-1" d="M196.55,222.59c0,1.74-1.14,4-3.43,6.85q-30,35.73-79.76,35.73-50.89,0-82.53-34.75Q0,196.82,0,145.61,0,96,30.18,61.44q31.47-36.21,80.08-36.21,52.85,0,82.86,32.46c2.18,2.39,3.26,4.51,3.26,6.36q0,3.11-11.33,23T170.78,109.4a4.45,4.45,0,0,1-3.27,1.3q-.81,0-8.15-6.52a86.36,86.36,0,0,0-17.29-12.24,58.5,58.5,0,0,0-26.75-6.52q-24,0-38.33,17.94Q63.78,120,63.78,144.46q0,24.79,13.21,41.6,14.36,18.27,38.33,18.27a60.68,60.68,0,0,0,26.91-6.2,83.24,83.24,0,0,0,17-11.42q7.17-6.19,8-6.2a4.56,4.56,0,0,1,3.26,1.8q2.61,2.92,14.19,20.38Q196.55,220.8,196.55,222.59Z"/><path class="cls-1" d="M369.93,179.21q0,37.18-22.75,60.35T287.4,262.72q-35.88,0-59-22.84t-23.16-58.72q0-37.83,22.19-61.41t60-23.57q36.86,0,59.7,23.08T369.93,179.21Zm-53.5,0a35.12,35.12,0,0,0-8-22.76,25.44,25.44,0,0,0-20.71-9.87,26.28,26.28,0,0,0-21.21,10.12,36.5,36.5,0,0,0,0,45.18A26.27,26.27,0,0,0,287.73,212q12.72,0,21-10.11Q316.44,192.42,316.43,179.21Z"/><path class="cls-1" d="M581.15,4.54q0-4-1.47,12-2,20.19-3.11,51.63-1.47,35.64-1.47,81.08,0,75.08,4.22,106.89c.24,2.31.36,3.76.36,4.37,0,1.33-.91,2.11-2.75,2.36q-6.58.9-48.52.91-9.9,0-11.36-3.82-.36-6.9-.73-13.82a5.47,5.47,0,0,0-1.47-2.9,11.75,11.75,0,0,0-2.74,2.18q-19.78,19.26-49.45,19.27-38.64,0-61.89-26.91-22.17-25.64-22.16-64.72,0-39.63,21.79-65.26,23.07-27.27,62.26-27.27,27.66,0,43,17.45,2.57,2.91,3.66,2.91,1.65,0,1.65-4.72,0-14-.73-41.81t-.74-41.63q0-5.28,2.93-6,11.73-.55,32.23-2.19Q581.33,0,577.12,0C579.8,0,581.15,1.52,581.15,4.54Zm-69,167.07A35.83,35.83,0,0,0,502,146.43Q492,135.62,477.68,135.62q-15,0-23.9,10.81t-8.88,25.91q0,14.72,9,24.9,9.17,10.9,23.81,10.91a31.79,31.79,0,0,0,24.54-10.91A36.93,36.93,0,0,0,512.11,171.61Z"/><path class="cls-1" d="M761.89,170.89q0,16.47-10.6,18.76-1.8.32-33.77,3.58-19.24,2.13-57.41,5.06,2.28,10.61,13.86,16.15A49,49,0,0,0,695.5,219q14.52,0,29.2-7.83l12.39-7.83q3.43,1.64,11.5,16.63t8.08,19.09q0,1.14-2.45,3.75-19.9,21.38-61.82,21.37-38.82,0-62.63-22.68-24.46-23-24.47-61.49,0-37.52,21.86-61.49,22.5-24.79,59.7-24.79,31.3,0,53.17,22.83T761.89,170.89Zm-57.09-9.95a25.2,25.2,0,0,0-7.18-17.78,22.66,22.66,0,0,0-17.12-7.67q-10.28,0-17,8.65a29.74,29.74,0,0,0-6.2,18.76c0,2.93,1.53,4.4,4.57,4.4q12.08,0,37.52-3.75C703,163,704.8,162.14,704.8,160.94Z"/><path class="cls-1" d="M943.92,184.1q0,11.91.49,35.48t.49,35.31q0,3.42-4.08,4.08-5.55,1-25,1-19.58,0-25.12-1c-2.39-.44-3.86-1.14-4.4-2.12-.22-.44-.33-2.07-.33-4.9q0-11.25.49-33.84t.49-34q0-46.32-3.59-73.73c-.21-1.73-.32-2.88-.32-3.42q0-3.26,4.4-3.26c3,0,7.69.32,13.95,1s11,1,14.11,1,7.88-.27,14.19-.81,11-.82,14.19-.82q3.92,0,3.91,3.27c0,.43-.11,1.46-.32,3.09Q943.91,142.19,943.92,184.1Zm4.24-121.19q0,28.38-32,28.38-13.71,0-22.67-7.18-9.79-7.83-9.79-21.2A25.66,25.66,0,0,1,893.84,42q9.3-7.5,22.35-7.5a33.54,33.54,0,0,1,22,7.66A25.66,25.66,0,0,1,948.16,62.91Z"/><path class="cls-1" d="M1084.52,211.18a133.19,133.19,0,0,1-1.23,14.84,134.81,134.81,0,0,0-1.22,14.6q0,4.65-1,5.95t-5.38,3.75q-21,11.58-46.65,11.58-47.14,0-47.14-36,0-10.77.82-32.38t.81-32.38q0-7.17-8.32-7.18h-2.12c-1,.11-1.68.17-2.12.17q-6.19,0-6.19-4.41c0-1.73.13-4.4.4-8s.41-6.25.41-8q0-3.42-.41-10.44c-.27-4.67-.4-8.16-.4-10.44s3.47-3.37,10.43-3.59q5.88-.15,6.37-3.26,1-6.19.65-19.57-.66-21-.65-20.07,0-18.91,3.58-18.92a58.52,58.52,0,0,1,12.56,2,116.54,116.54,0,0,0,12.89,2.45q8.32,1.14,25.12,3.1,4.08.33,4.08,2.77,0,6.53-1.06,19.74t-1.06,19.9q0,8,4.73,8,5.7,0,17.29-.49t17.45-.49q3.58,0,3.58,2.45,0,3.75-.81,11.25t-.82,11.26q0,3.91.17,11.41c.11,5,.16,8.81.16,11.42,0,2.28-1.58,3.43-4.73,3.43-2.17,0-5.82-.08-10.93-.25s-8.75-.24-10.92-.24h-12.24q-2.45,0-2.44,7.17v11.58c.1,5.22.16,9.08.16,11.59q0,13.69,3.1,18.92,4.39,7,17.29,7a52.25,52.25,0,0,0,11.66-1.88c5-1.24,8.62-1.87,10.68-1.87C1083.37,207.59,1084.52,208.79,1084.52,211.18Z"/><path class="cls-1" d="M1166.89,69.6a276.49,276.49,0,0,1-5.38,55.78q-6.52,26.76-12.89,53.34-1.47,6-13,6-13.21,0-14.68-5.22-15.33-52.35-15.33-59.53,0-6.69.65-19.9t.65-19.9q0-7.33-.48-22t-.49-22c0-4,1-6,2.93-6q4.58,0,13.7.66t13.7.65c3,0,7.61-.22,13.71-.65s10.65-.66,13.7-.66Q1166.88,30.12,1166.89,69.6Zm0,161.64q0,13.69-8.48,22.75t-22.19,9.06q-13.86,0-22.26-9t-8.4-22.83q0-13.71,8.48-22.51t22.18-8.81q13.54,0,22.1,8.81T1166.89,231.24Z"/></svg>