<svg width="20" height="18" viewBox="0 0 20 18" fill="none" xmlns="http://www.w3.org/2000/svg">
<path d="M19.4159 0.395789C19.1871 0.198508 18.9103 0.0688929 18.6151 0.0208508C18.32 -0.0271913 18.0177 0.00815279 17.7406 0.123091L0.832492 7.06933C0.58602 7.17441 0.375406 7.35209 0.22724 7.57993C0.0790743 7.80777 0 8.07557 0 8.3495C0 8.62343 0.0790743 8.89122 0.22724 9.11906C0.375406 9.34691 0.58602 9.52458 0.832492 9.62967L1.92477 10.0917C2.10486 10.1699 2.30783 10.1716 2.4891 10.0963C2.67037 10.021 2.81512 9.87499 2.89158 9.69027C2.92908 9.59828 2.94852 9.49959 2.94878 9.39987C2.94904 9.30015 2.93012 9.20135 2.89309 9.10916C2.85606 9.01696 2.80166 8.93318 2.73301 8.86261C2.66436 8.79205 2.58281 8.73609 2.49304 8.69795L1.68122 8.35707L18.2941 1.53961C18.3197 1.52354 18.349 1.51503 18.379 1.51503C18.409 1.51503 18.4383 1.52354 18.4639 1.53961C18.488 1.5606 18.5061 1.58783 18.5165 1.61846C18.5269 1.6491 18.5291 1.68203 18.5229 1.71383L15.4896 16.2426C15.4797 16.2943 15.4568 16.3425 15.4231 16.3824C15.3894 16.4222 15.3462 16.4524 15.2977 16.4699C15.2502 16.4892 15.1984 16.4952 15.1478 16.4872C15.0972 16.4793 15.0496 16.4576 15.0099 16.4244L9.10573 11.6976L14.8845 5.70584C15.0079 5.57438 15.0809 5.40159 15.0901 5.21926C15.0993 5.03693 15.044 4.85733 14.9344 4.71351C14.8249 4.56969 14.6684 4.47133 14.4937 4.43654C14.3191 4.40175 14.1381 4.43286 13.9841 4.52414L5.51156 9.67512C5.41746 9.71877 5.33333 9.7822 5.26461 9.86132C5.19589 9.94044 5.14411 10.0335 5.11263 10.1344C5.08114 10.2354 5.07064 10.342 5.08181 10.4473C5.09298 10.5527 5.12558 10.6545 5.17748 10.7461C5.22938 10.8378 5.29944 10.9172 5.38313 10.9793C5.46682 11.0414 5.56228 11.0848 5.66332 11.1066C5.76437 11.1285 5.86876 11.1283 5.96975 11.1062C6.07073 11.084 6.16607 11.0403 6.24958 10.978L9.81424 8.81915L8.07988 10.6296C7.92122 10.7826 7.7975 10.9697 7.71758 11.1776C7.63767 11.3854 7.60354 11.6088 7.61765 11.8318C7.63176 12.0548 7.69375 12.2718 7.79918 12.4673C7.90461 12.6628 8.05088 12.832 8.22749 12.9626L14.1317 17.6213C14.4424 17.8674 14.824 18.0006 15.2166 18C15.4256 17.9984 15.6328 17.96 15.8291 17.8864C16.1111 17.7825 16.3623 17.606 16.5587 17.3739C16.7551 17.1418 16.8902 16.8618 16.9509 16.5608L19.9621 2.04713C20.026 1.74693 20.0089 1.43451 19.9127 1.14353C19.8164 0.85255 19.6447 0.594024 19.4159 0.395789Z" fill="#141E2D"/>
</svg>
