<svg preserveAspectRatio="none" width="456" height="54" viewBox="0 0 456 54" fill="none" xmlns="http://www.w3.org/2000/svg">
<path d="M18.2218 46.4681C53.2903 42.4001 88.5257 39.9621 123.928 39.1542C133.936 38.9311 251.598 38.8995 261.611 38.9386L257.576 38.9233C281.12 39.0184 304.69 39.8274 328.286 41.3504C351.883 42.8735 375.474 45.1297 399.059 48.119C412.367 49.7967 425.67 51.7069 438.969 53.8495C442.952 54.4789 446.865 53.1195 449.908 50.0492C452.693 47.1411 454.949 41.9648 455.033 37.0989C455.218 26.6234 449.439 16.3692 440.997 15.0126C399.478 8.33731 357.913 3.89658 316.3 1.69049C273.865 -0.543303 123.866 -0.583586 81.6073 1.69045C58.3957 2.95141 35.2482 4.9237 12.1647 7.60726C4.36371 8.51089 -1.51702 19.526 0.403527 29.6329C2.46344 40.4644 9.8528 47.4437 18.2105 46.4755L18.2218 46.4681Z" fill="#01FAD0"/>
</svg>
