<svg width="19" height="18" viewBox="0 0 19 18" fill="none" xmlns="http://www.w3.org/2000/svg">
<path d="M9.51947 9.61408e-07C7.8793 -0.000717699 6.26692 0.401478 4.83957 1.16737C3.41222 1.93326 2.21864 3.0367 1.3752 4.37008C0.531771 5.70346 0.067285 7.22127 0.0270413 8.77549C-0.0132024 10.3297 0.37217 11.8673 1.14558 13.2383L0.0285711 17.1205C-0.00835719 17.2419 -0.00950944 17.3706 0.0252392 17.4926C0.0599879 17.6146 0.129311 17.7252 0.22569 17.8125C0.297427 17.8746 0.381517 17.9225 0.473031 17.9534C0.564546 17.9843 0.661645 17.9976 0.758641 17.9924C0.823917 18.0025 0.890483 18.0025 0.955759 17.9924L5.27047 16.8506C5.45732 16.802 5.61613 16.685 5.71197 16.5254C5.80781 16.3657 5.83283 16.1765 5.78152 15.9994C5.73021 15.8223 5.60677 15.6718 5.43837 15.5809C5.26996 15.4901 5.07038 15.4664 4.88353 15.515L1.79534 16.3039L2.63492 13.3282C2.65984 13.2403 2.66622 13.1486 2.65369 13.0584C2.64116 12.9681 2.60998 12.8811 2.56191 12.8023C1.67805 11.3512 1.32399 9.66422 1.55465 8.00295C1.78532 6.34168 2.5878 4.79897 3.83767 3.61405C5.08754 2.42913 6.71495 1.6682 8.46752 1.44928C10.2201 1.23037 11.9999 1.56568 13.531 2.40323C15.062 3.24078 16.2587 4.53377 16.9356 6.08168C17.6124 7.62959 17.7315 9.34593 17.2744 10.9645C16.8173 12.5831 15.8096 14.0136 14.4075 15.034C13.0053 16.0544 11.2872 16.6078 9.51947 16.6084C9.06945 16.6088 8.62016 16.5741 8.17615 16.5046C7.98546 16.4746 7.78999 16.5174 7.63259 16.6238C7.4752 16.7302 7.36875 16.8914 7.33657 17.0721C7.30487 17.2528 7.3501 17.4381 7.46233 17.5873C7.57455 17.7365 7.74462 17.8374 7.93522 17.8679C9.22953 18.0742 10.5549 18.0238 11.8276 17.7199C13.1004 17.416 14.2927 16.8651 15.3294 16.1022C16.3662 15.3393 17.2247 14.3808 17.8507 13.2874C18.4768 12.194 18.8567 10.9893 18.9667 9.74963C19.0766 8.50993 18.914 7.26209 18.4893 6.08496C18.0646 4.90783 17.3869 3.827 16.4991 2.91075C15.6112 1.9945 14.5326 1.26275 13.3312 0.761746C12.1299 0.260739 10.832 0.00136149 9.51947 9.61408e-07Z" fill="#141E2D"/>
<path d="M8.78928 5.68144L7.9424 4.57421C7.8148 4.40828 7.65089 4.27043 7.46188 4.1701C7.27287 4.06977 7.06323 4.00933 6.8473 3.99292C6.63029 3.97776 6.41237 4.00699 6.20831 4.07863C6.00426 4.15027 5.81883 4.26264 5.66459 4.40813L4.7885 5.23855C4.59274 5.42804 4.43994 5.65348 4.3395 5.90102C4.23906 6.14855 4.1931 6.41295 4.20445 6.67794C4.20445 7.90281 5.19734 9.44601 7.12472 11.2453C9.38064 13.3213 10.943 14.0133 12.0089 14.0133C12.2799 14.0201 12.5494 13.9738 12.8006 13.8773C13.0518 13.7809 13.2794 13.6364 13.469 13.4528L14.3451 12.6224C14.5045 12.4806 14.6283 12.3068 14.7074 12.1136C14.7865 11.9205 14.8188 11.713 14.802 11.5065C14.7851 11.2999 14.7196 11.0996 14.6102 10.9202C14.5008 10.7409 14.3504 10.5871 14.1699 10.4702L13.0237 9.68821C12.8329 9.5585 12.613 9.47228 12.3813 9.43627C12.1496 9.40026 11.9122 9.41543 11.6877 9.48061L10.5999 9.80586C10.5319 9.8013 10.4664 9.77981 10.41 9.74358C9.76218 9.30272 9.1844 8.77603 8.69437 8.17962C8.68959 8.15445 8.68959 8.12867 8.69437 8.1035C8.78928 7.79901 8.9499 7.30768 9.05941 6.96859C9.13026 6.74961 9.14267 6.51738 9.09553 6.29273C9.04838 6.06809 8.94316 5.85804 8.78928 5.68144ZM9.73107 10.9615C10.1214 11.1643 10.5801 11.214 11.0087 11.0999L12.133 10.7816L13.3084 11.6466L12.4396 12.4563C12.0892 12.7815 10.797 12.6846 8.16142 10.2349C5.97122 8.22114 5.67189 7.12083 5.67189 6.65026C5.67737 6.49065 5.74805 6.33929 5.86901 6.22813L6.80349 5.40463L7.66498 6.54646C7.54817 6.88555 7.38025 7.39072 7.29264 7.68829C7.18864 8.00582 7.20151 8.34742 7.32914 8.65711C7.95876 9.57935 8.78732 10.3647 9.76028 10.9615H9.73107Z" fill="#141E2D"/>
</svg>
