<svg id="Слой_1" data-name="Слой 1" xmlns="http://www.w3.org/2000/svg" viewBox="0 0 1929.74 265.17"><defs><style>.cls-1{fill:#141e2d;}</style></defs><path class="cls-1" d="M196.55,222.59c0,1.74-1.14,4-3.43,6.85q-30,35.73-79.76,35.73-50.89,0-82.53-34.75Q0,196.82,0,145.61,0,96,30.18,61.44q31.47-36.21,80.08-36.21,52.85,0,82.86,32.46c2.18,2.39,3.26,4.51,3.26,6.36q0,3.11-11.33,23T170.78,109.4a4.45,4.45,0,0,1-3.27,1.3q-.81,0-8.15-6.52a86.36,86.36,0,0,0-17.29-12.24,58.5,58.5,0,0,0-26.75-6.52q-24,0-38.33,17.94Q63.78,120,63.78,144.46q0,24.79,13.21,41.6,14.36,18.27,38.33,18.27a60.68,60.68,0,0,0,26.91-6.2,83.24,83.24,0,0,0,17-11.42q7.17-6.19,8-6.2a4.56,4.56,0,0,1,3.26,1.8q2.61,2.92,14.19,20.38Q196.55,220.8,196.55,222.59Z"/><path class="cls-1" d="M369.93,179.21q0,37.18-22.75,60.35T287.4,262.72q-35.88,0-59-22.84t-23.16-58.72q0-37.83,22.19-61.41t60-23.57q36.86,0,59.7,23.08T369.93,179.21Zm-53.5,0a35.12,35.12,0,0,0-8-22.76,25.44,25.44,0,0,0-20.71-9.87,26.28,26.28,0,0,0-21.21,10.12,36.5,36.5,0,0,0,0,45.18A26.27,26.27,0,0,0,287.73,212q12.72,0,21-10.11Q316.44,192.42,316.43,179.21Z"/><path class="cls-1" d="M581.15,4.54q0-4-1.47,12-2,20.19-3.11,51.63-1.47,35.64-1.47,81.08,0,75.08,4.22,106.89c.24,2.31.36,3.76.36,4.37,0,1.33-.91,2.11-2.75,2.36q-6.58.9-48.52.91-9.9,0-11.36-3.82-.36-6.9-.73-13.82a5.47,5.47,0,0,0-1.47-2.9,11.75,11.75,0,0,0-2.74,2.18q-19.78,19.26-49.45,19.27-38.64,0-61.89-26.91-22.17-25.64-22.16-64.72,0-39.63,21.79-65.26,23.07-27.27,62.26-27.27,27.66,0,43,17.45,2.57,2.91,3.66,2.91,1.65,0,1.65-4.72,0-14-.73-41.81t-.74-41.63q0-5.28,2.93-6,11.73-.55,32.23-2.19Q581.33,0,577.12,0C579.8,0,581.15,1.52,581.15,4.54Zm-69,167.07A35.83,35.83,0,0,0,502,146.43Q492,135.62,477.68,135.62q-15,0-23.9,10.81t-8.88,25.91q0,14.72,9,24.9,9.17,10.9,23.81,10.91a31.79,31.79,0,0,0,24.54-10.91A36.93,36.93,0,0,0,512.11,171.61Z"/><path class="cls-1" d="M761.89,170.89q0,16.47-10.6,18.76-1.8.32-33.77,3.58-19.24,2.13-57.41,5.06,2.28,10.61,13.86,16.15A49,49,0,0,0,695.5,219q14.52,0,29.2-7.83l12.39-7.83q3.43,1.64,11.5,16.63t8.08,19.09q0,1.14-2.45,3.75-19.9,21.38-61.82,21.37-38.82,0-62.63-22.68-24.46-23-24.47-61.49,0-37.52,21.86-61.49,22.5-24.79,59.7-24.79,31.3,0,53.17,22.83T761.89,170.89Zm-57.09-9.95a25.2,25.2,0,0,0-7.18-17.78,22.66,22.66,0,0,0-17.12-7.67q-10.28,0-17,8.65a29.74,29.74,0,0,0-6.2,18.76c0,2.93,1.53,4.4,4.57,4.4q12.08,0,37.52-3.75C703,163,704.8,162.14,704.8,160.94Z"/><path class="cls-1" d="M943.92,184.1q0,11.91.49,35.48t.49,35.31q0,3.42-4.08,4.08-5.55,1-25,1-19.58,0-25.12-1c-2.39-.44-3.86-1.14-4.4-2.12-.22-.44-.33-2.07-.33-4.9q0-11.25.49-33.84t.49-34q0-46.32-3.59-73.73c-.21-1.73-.32-2.88-.32-3.42q0-3.26,4.4-3.26c3,0,7.69.32,13.95,1s11,1,14.11,1,7.88-.27,14.19-.81,11-.82,14.19-.82q3.92,0,3.91,3.27c0,.43-.11,1.46-.32,3.09Q943.91,142.19,943.92,184.1Zm4.24-121.19q0,28.38-32,28.38-13.71,0-22.67-7.18-9.79-7.83-9.79-21.2A25.66,25.66,0,0,1,893.84,42q9.3-7.5,22.35-7.5a33.54,33.54,0,0,1,22,7.66A25.66,25.66,0,0,1,948.16,62.91Z"/><path class="cls-1" d="M1084.52,211.18a133.19,133.19,0,0,1-1.23,14.84,134.81,134.81,0,0,0-1.22,14.6q0,4.65-1,5.95t-5.38,3.75q-21,11.58-46.65,11.58-47.14,0-47.14-36,0-10.77.82-32.38t.81-32.38q0-7.17-8.32-7.18h-2.12c-1,.11-1.68.17-2.12.17q-6.19,0-6.19-4.41c0-1.73.13-4.4.4-8s.41-6.25.41-8q0-3.42-.41-10.44c-.27-4.67-.4-8.16-.4-10.44s3.47-3.37,10.43-3.59q5.88-.15,6.37-3.26,1-6.19.65-19.57-.66-21-.65-20.07,0-18.91,3.58-18.92a58.52,58.52,0,0,1,12.56,2,116.54,116.54,0,0,0,12.89,2.45q8.32,1.14,25.12,3.1,4.08.33,4.08,2.77,0,6.53-1.06,19.74t-1.06,19.9q0,8,4.73,8,5.7,0,17.29-.49t17.45-.49q3.58,0,3.58,2.45,0,3.75-.81,11.25t-.82,11.26q0,3.91.17,11.41c.11,5,.16,8.81.16,11.42,0,2.28-1.58,3.43-4.73,3.43-2.17,0-5.82-.08-10.93-.25s-8.75-.24-10.92-.24h-12.24q-2.45,0-2.44,7.17v11.58c.1,5.22.16,9.08.16,11.59q0,13.69,3.1,18.92,4.39,7,17.29,7a52.25,52.25,0,0,0,11.66-1.88c5-1.24,8.62-1.87,10.68-1.87C1083.37,207.59,1084.52,208.79,1084.52,211.18Z"/><path class="cls-1" d="M1166.89,69.6a276.49,276.49,0,0,1-5.38,55.78q-6.52,26.76-12.89,53.34-1.47,6-13,6-13.21,0-14.68-5.22-15.33-52.35-15.33-59.53,0-6.69.65-19.9t.65-19.9q0-7.33-.48-22t-.49-22c0-4,1-6,2.93-6q4.58,0,13.7.66t13.7.65c3,0,7.61-.22,13.71-.65s10.65-.66,13.7-.66Q1166.88,30.12,1166.89,69.6Zm0,161.64q0,13.69-8.48,22.75t-22.19,9.06q-13.86,0-22.26-9t-8.4-22.83q0-13.71,8.48-22.51t22.18-8.81q13.54,0,22.1,8.81T1166.89,231.24Z"/><path d="M1282.21,63.27a16.87,16.87,0,0,1,6.24-6.2,18.41,18.41,0,0,1,17.71,0,16.84,16.84,0,0,1,6.2,6.2,18.9,18.9,0,0,1,0,18.07,16.8,16.8,0,0,1-6.2,6.24,18.48,18.48,0,0,1-17.71,0,16.83,16.83,0,0,1-6.24-6.24,18.9,18.9,0,0,1,0-18.07Zm5.11,15.26a11.34,11.34,0,0,0,4.09,4.27,11.78,11.78,0,0,0,11.75,0,11.34,11.34,0,0,0,4.09-4.27,12.57,12.57,0,0,0,1.5-6.21,12.8,12.8,0,0,0-1.5-6.24,11,11,0,0,0-4.09-4.27,12,12,0,0,0-11.75,0,11,11,0,0,0-4.09,4.27,12.91,12.91,0,0,0-1.49,6.24A12.68,12.68,0,0,0,1287.32,78.53Z"/><path d="M1328.53,55.53V89.11h-5.84V55.53Zm-2.41,13.14h24.82v5.48h-24.82ZM1353,55.53V89.11h-5.84V55.53Z"/><path d="M1393.35,89.11h-5.84V61h-17.15V77.43a15.43,15.43,0,0,1-1.21,6.54,8,8,0,0,1-3.68,3.87,13.71,13.71,0,0,1-6.28,1.27V83.78A5.51,5.51,0,0,0,1363,82.4c1-.93,1.57-2.58,1.57-5V55.53h28.83Z"/><path d="M1408.25,82.21A5.75,5.75,0,0,0,1410.8,84a9.92,9.92,0,0,0,3.58.62,14.17,14.17,0,0,0,5.18-.88A7.26,7.26,0,0,0,1423.1,81a8.88,8.88,0,0,0,1.28-5l1.17,3.65a8.89,8.89,0,0,1-1.72,5.51,10.71,10.71,0,0,1-4.56,3.51,16.22,16.22,0,0,1-6.35,1.2,14,14,0,0,1-5.77-1.17,9.76,9.76,0,0,1-4.2-3.46,10,10,0,0,1-1.56-5.73,10.21,10.21,0,0,1,1.75-6.06,11.17,11.17,0,0,1,5-3.83,19.5,19.5,0,0,1,7.59-1.35,16.09,16.09,0,0,1,5.51.84,13.74,13.74,0,0,1,3.69,1.89,11.25,11.25,0,0,1,1.9,1.72v3.43a19.17,19.17,0,0,0-5-2.59,18.38,18.38,0,0,0-5.77-.84,12.84,12.84,0,0,0-4.85.8,6.11,6.11,0,0,0-2.88,2.26,6.27,6.27,0,0,0-1,3.51A4.56,4.56,0,0,0,1408.25,82.21ZM1404.45,59a27.55,27.55,0,0,1,5.11-2.77,19.54,19.54,0,0,1,7.74-1.39,17.27,17.27,0,0,1,6.75,1.21,10.41,10.41,0,0,1,4.53,3.47,9.18,9.18,0,0,1,1.64,5.54V89.11h-5.84V65a4.18,4.18,0,0,0-2.15-3.83,9.51,9.51,0,0,0-4.93-1.28,14.62,14.62,0,0,0-4.38.62,16.61,16.61,0,0,0-3.4,1.46c-.94.56-1.69,1-2.22,1.43Z"/><path d="M1440.44,91.67l.36-8.4L1468.54,53l-.36,8.39Zm5.84-8-5.84,8V55.53h5.84Zm2-45.26a6.13,6.13,0,0,0,.51,2.22,5.19,5.19,0,0,0,1.9,2.27,8.43,8.43,0,0,0,7.89,0,5.16,5.16,0,0,0,1.89-2.27,6.13,6.13,0,0,0,.51-2.22h5.19a10.14,10.14,0,0,1-1.28,4.85,10,10,0,0,1-3.83,3.87,14.42,14.42,0,0,1-12.81,0,9.86,9.86,0,0,1-3.87-3.87,10.14,10.14,0,0,1-1.28-4.85Zm20.22,50.73h-5.84V61l5.84-8Z"/><path d="M1485.7,55.53V89.11h-5.84V55.53Zm-2.41,13.14h24.82v5.48h-24.82Zm26.86-13.14V89.11h-5.84V55.53Z"/><path d="M1516,69h14.6v5.47H1516Z"/><path d="M1576.58,83.64V55.53h5.84V89.11h-46V55.53h5.84V83.64h14.24V55.53h5.84V83.64Z"/><path d="M1598.85,55.53V89.11H1593V55.53Zm19.71,0L1604,69.4,1620,89.11h-7.3L1596.66,69.4l14.6-13.87Z"/><path d="M1623.78,63.27a16.72,16.72,0,0,1,6.24-6.2,18.39,18.39,0,0,1,17.7,0,16.94,16.94,0,0,1,6.21,6.2,19,19,0,0,1,0,18.07,16.9,16.9,0,0,1-6.21,6.24,18.46,18.46,0,0,1-17.7,0,16.69,16.69,0,0,1-6.24-6.24,18.9,18.9,0,0,1,0-18.07Zm5.11,15.26A11.31,11.31,0,0,0,1633,82.8a11.8,11.8,0,0,0,11.76,0,11.31,11.31,0,0,0,4.08-4.27,12.57,12.57,0,0,0,1.5-6.21,12.8,12.8,0,0,0-1.5-6.24,11,11,0,0,0-4.08-4.27,12.06,12.06,0,0,0-11.76,0,11,11,0,0,0-4.08,4.27,12.8,12.8,0,0,0-1.5,6.24A12.57,12.57,0,0,0,1628.89,78.53Z"/><path d="M1693.67,89.11h-5.84V61h-17.15V77.43a15.43,15.43,0,0,1-1.21,6.54,8,8,0,0,1-3.68,3.87,13.71,13.71,0,0,1-6.28,1.27V83.78a5.51,5.51,0,0,0,3.76-1.38c1-.93,1.57-2.58,1.57-5V55.53h28.83Z"/><path d="M1708.56,82.21a5.84,5.84,0,0,0,2.56,1.83,9.92,9.92,0,0,0,3.58.62,14.17,14.17,0,0,0,5.18-.88,7.26,7.26,0,0,0,3.54-2.77,8.88,8.88,0,0,0,1.28-5l1.17,3.65a9,9,0,0,1-1.72,5.51,10.71,10.71,0,0,1-4.56,3.51,16.22,16.22,0,0,1-6.35,1.2,14,14,0,0,1-5.77-1.17,9.76,9.76,0,0,1-4.2-3.46,10,10,0,0,1-1.57-5.73,10.21,10.21,0,0,1,1.76-6.06,11.11,11.11,0,0,1,5-3.83,19.5,19.5,0,0,1,7.59-1.35,16.09,16.09,0,0,1,5.51.84,13.9,13.9,0,0,1,3.69,1.89,11.25,11.25,0,0,1,1.9,1.72v3.43a19.17,19.17,0,0,0-5-2.59,18.43,18.43,0,0,0-5.77-.84,12.84,12.84,0,0,0-4.85.8,6.19,6.19,0,0,0-2.89,2.26,6.35,6.35,0,0,0-.94,3.51A4.61,4.61,0,0,0,1708.56,82.21ZM1704.77,59a27.23,27.23,0,0,1,5.11-2.77,19.54,19.54,0,0,1,7.74-1.39,17.27,17.27,0,0,1,6.75,1.21,10.41,10.41,0,0,1,4.53,3.47,9.18,9.18,0,0,1,1.64,5.54V89.11h-5.84V65a4.17,4.17,0,0,0-2.16-3.83,9.45,9.45,0,0,0-4.92-1.28,14.62,14.62,0,0,0-4.38.62,16.61,16.61,0,0,0-3.4,1.46c-.95.56-1.69,1-2.22,1.43Z"/><path d="M1310.21,161.11h-5.84V133h-15.7v28.1h-5.84V127.53h27.38Z"/><path d="M1320.79,177.17V127.53h5.84v49.64Zm31.69-23.5a15.88,15.88,0,0,1-6,6.06,16.73,16.73,0,0,1-8.36,2.11,12.89,12.89,0,0,1-7.33-2.11,14.11,14.11,0,0,1-5-6.06,25.53,25.53,0,0,1,0-18.73,14.11,14.11,0,0,1,5-6,12.9,12.9,0,0,1,7.33-2.12,16.73,16.73,0,0,1,8.36,2.12,15.91,15.91,0,0,1,6,6,20.53,20.53,0,0,1,0,18.73Zm-5.22-15.92a10.57,10.57,0,0,0-4.17-4.09,12,12,0,0,0-5.73-1.38,10.23,10.23,0,0,0-5,1.38,11,11,0,0,0-4.09,4.09,14.21,14.21,0,0,0,0,13.14,10.92,10.92,0,0,0,4.09,4.09,10.14,10.14,0,0,0,5,1.39,11.85,11.85,0,0,0,5.73-1.39,10.5,10.5,0,0,0,4.17-4.09,14.61,14.61,0,0,0,0-13.14Z"/><path d="M1362.15,135.27a16.72,16.72,0,0,1,6.24-6.2,18.39,18.39,0,0,1,17.7,0,16.94,16.94,0,0,1,6.21,6.2,18.9,18.9,0,0,1,0,18.07,16.9,16.9,0,0,1-6.21,6.24,18.46,18.46,0,0,1-17.7,0,16.69,16.69,0,0,1-6.24-6.24,18.9,18.9,0,0,1,0-18.07Zm5.11,15.26a11.26,11.26,0,0,0,4.09,4.27,11.78,11.78,0,0,0,11.75,0,11.41,11.41,0,0,0,4.09-4.27,12.68,12.68,0,0,0,1.49-6.21,12.91,12.91,0,0,0-1.49-6.24,11.06,11.06,0,0,0-4.09-4.27,12,12,0,0,0-11.75,0,10.92,10.92,0,0,0-4.09,4.27,12.8,12.8,0,0,0-1.5,6.24A12.57,12.57,0,0,0,1367.26,150.53Z"/><path d="M1420.87,127.53V133h-12v28.1H1403V127.53Z"/><path d="M1426.35,177.17V127.53h5.84v49.64Zm31.68-23.5a15.93,15.93,0,0,1-6,6.06,16.75,16.75,0,0,1-8.36,2.11,13,13,0,0,1-7.34-2.11,14.09,14.09,0,0,1-5-6.06,25.39,25.39,0,0,1,0-18.73,14.09,14.09,0,0,1,5-6,13,13,0,0,1,7.34-2.12,16.76,16.76,0,0,1,8.36,2.12,16,16,0,0,1,6,6,20.53,20.53,0,0,1,0,18.73Zm-5.22-15.92a10.54,10.54,0,0,0-4.16-4.09,12,12,0,0,0-5.73-1.38,10.3,10.3,0,0,0-5,1.38,11.06,11.06,0,0,0-4.09,4.09,14.29,14.29,0,0,0,0,13.14,11,11,0,0,0,4.09,4.09,10.21,10.21,0,0,0,5,1.39,11.9,11.9,0,0,0,5.73-1.39,10.48,10.48,0,0,0,4.16-4.09,14.53,14.53,0,0,0,0-13.14Z"/><path d="M1471.9,154.21a5.73,5.73,0,0,0,2.56,1.83,9.87,9.87,0,0,0,3.57.62,14.19,14.19,0,0,0,5.19-.88,7.36,7.36,0,0,0,3.54-2.77,8.88,8.88,0,0,0,1.27-5l1.17,3.65a9,9,0,0,1-1.71,5.51,10.8,10.8,0,0,1-4.57,3.51,16.19,16.19,0,0,1-6.35,1.2,14,14,0,0,1-5.76-1.17,9.65,9.65,0,0,1-4.2-3.46,9.91,9.91,0,0,1-1.57-5.73,10.21,10.21,0,0,1,1.75-6.06,11.17,11.17,0,0,1,5-3.83,19.55,19.55,0,0,1,7.6-1.35,16.13,16.13,0,0,1,5.51.84,13.82,13.82,0,0,1,3.68,1.89,10.86,10.86,0,0,1,1.9,1.72v3.43a18.87,18.87,0,0,0-5-2.59,18.36,18.36,0,0,0-5.76-.84,12.86,12.86,0,0,0-4.86.8,6.11,6.11,0,0,0-2.88,2.26,6.35,6.35,0,0,0-1,3.51A4.62,4.62,0,0,0,1471.9,154.21ZM1468.1,131a27.55,27.55,0,0,1,5.11-2.77,19.54,19.54,0,0,1,7.74-1.39,17.27,17.27,0,0,1,6.75,1.21,10.29,10.29,0,0,1,4.53,3.47,9.11,9.11,0,0,1,1.64,5.54v24.09H1488V137a4.18,4.18,0,0,0-2.15-3.83,9.51,9.51,0,0,0-4.93-1.28,14.72,14.72,0,0,0-4.38.62,16.76,16.76,0,0,0-3.39,1.46c-1,.56-1.69,1-2.23,1.43Z"/><path d="M1507.38,125l3.28,9.49-5.47,26.64h-6.57Zm-.73,11.68.73-11.68,15.11,31.1-2.19,7.3ZM1533.44,125l.73,11.68-13.87,26.72-2.19-7.3Zm-3.29,9.49,3.29-9.49,8.76,36.13h-6.57Z"/><path d="M1551.69,125l3.28,9.49-5.47,26.64h-6.57Zm-.73,11.68.73-11.68,15.11,31.1-2.19,7.3ZM1577.75,125l.73,11.68-13.87,26.72-2.19-7.3Zm-3.29,9.49,3.29-9.49,8.76,36.13h-6.57Z"/><path d="M1592.71,163.67l.37-8.4L1620.82,125l-.37,8.39Zm5.84-8-5.84,8V127.53h5.84Zm22.27,5.47H1615V133l5.84-8Z"/><path d="M1631.77,177.17V127.53h5.84v49.64Zm31.68-23.5a15.93,15.93,0,0,1-6,6.06,16.75,16.75,0,0,1-8.36,2.11,13,13,0,0,1-7.34-2.11,14.09,14.09,0,0,1-5-6.06,25.39,25.39,0,0,1,0-18.73,14.09,14.09,0,0,1,5-6,13,13,0,0,1,7.34-2.12,16.76,16.76,0,0,1,8.36,2.12,16,16,0,0,1,6,6,20.53,20.53,0,0,1,0,18.73Zm-5.22-15.92a10.54,10.54,0,0,0-4.16-4.09,12,12,0,0,0-5.73-1.38,10.3,10.3,0,0,0-5,1.38,11.06,11.06,0,0,0-4.09,4.09,14.29,14.29,0,0,0,0,13.14,11,11,0,0,0,4.09,4.09,10.21,10.21,0,0,0,5,1.39,11.9,11.9,0,0,0,5.73-1.39,10.48,10.48,0,0,0,4.16-4.09,14.53,14.53,0,0,0,0-13.14Z"/><path d="M1673.12,135.27a16.87,16.87,0,0,1,6.24-6.2,18.41,18.41,0,0,1,17.71,0,16.84,16.84,0,0,1,6.2,6.2,18.9,18.9,0,0,1,0,18.07,16.8,16.8,0,0,1-6.2,6.24,18.48,18.48,0,0,1-17.71,0,16.83,16.83,0,0,1-6.24-6.24,18.9,18.9,0,0,1,0-18.07Zm5.11,15.26a11.34,11.34,0,0,0,4.09,4.27,11.78,11.78,0,0,0,11.75,0,11.34,11.34,0,0,0,4.09-4.27,12.57,12.57,0,0,0,1.5-6.21,12.8,12.8,0,0,0-1.5-6.24,11,11,0,0,0-4.09-4.27,12,12,0,0,0-11.75,0,11,11,0,0,0-4.09,4.27,12.79,12.79,0,0,0-1.49,6.24A12.57,12.57,0,0,0,1678.23,150.53Z"/><path d="M1719.44,127.53v33.58h-5.84V127.53ZM1717,141.62h9a7.89,7.89,0,0,0,2.37-.33,4.57,4.57,0,0,0,1.79-1,4.79,4.79,0,0,0,1.13-1.5,4,4,0,0,0,.4-1.79,3.84,3.84,0,0,0-1.53-3.17,6.52,6.52,0,0,0-4.16-1.21h-9v-5.11h9a17.13,17.13,0,0,1,5.73.92,9,9,0,0,1,4.2,2.92,8.2,8.2,0,0,1,1.6,5.29,7,7,0,0,1-1.6,4.71,9.65,9.65,0,0,1-4.2,2.77,17.13,17.13,0,0,1-5.73.91h-9Zm9.71,2a25,25,0,0,1,6.28.73,8.56,8.56,0,0,1,4.38,2.56A7.49,7.49,0,0,1,1739,152a9.1,9.1,0,0,1-2.51,6.46c-1.68,1.78-4.45,2.66-8.29,2.66H1717V156h9.71a7.23,7.23,0,0,0,4.86-1.38,4.35,4.35,0,0,0,1.56-3.36,4,4,0,0,0-.4-1.83,4.79,4.79,0,0,0-1.16-1.46,5.18,5.18,0,0,0-2-1,11,11,0,0,0-2.88-.33H1717v-3.07Z"/><path d="M1750.25,154.21a5.75,5.75,0,0,0,2.55,1.83,9.92,9.92,0,0,0,3.58.62,14.17,14.17,0,0,0,5.18-.88,7.26,7.26,0,0,0,3.54-2.77,8.88,8.88,0,0,0,1.28-5l1.17,3.65a9,9,0,0,1-1.72,5.51,10.71,10.71,0,0,1-4.56,3.51,16.22,16.22,0,0,1-6.35,1.2,14,14,0,0,1-5.77-1.17,9.76,9.76,0,0,1-4.2-3.46,10,10,0,0,1-1.57-5.73,10.21,10.21,0,0,1,1.76-6.06,11.11,11.11,0,0,1,5-3.83,19.5,19.5,0,0,1,7.59-1.35,16.09,16.09,0,0,1,5.51.84,13.9,13.9,0,0,1,3.69,1.89,11.25,11.25,0,0,1,1.9,1.72v3.43a19.17,19.17,0,0,0-5-2.59,18.43,18.43,0,0,0-5.77-.84,12.84,12.84,0,0,0-4.85.8,6.11,6.11,0,0,0-2.88,2.26,6.27,6.27,0,0,0-1,3.51A4.56,4.56,0,0,0,1750.25,154.21Zm-3.8-23.25a27.23,27.23,0,0,1,5.11-2.77,19.54,19.54,0,0,1,7.74-1.39,17.27,17.27,0,0,1,6.75,1.21,10.41,10.41,0,0,1,4.53,3.47,9.18,9.18,0,0,1,1.64,5.54v24.09h-5.84V137a4.18,4.18,0,0,0-2.15-3.83,9.51,9.51,0,0,0-4.93-1.28,14.62,14.62,0,0,0-4.38.62,16.61,16.61,0,0,0-3.4,1.46c-1,.56-1.69,1-2.22,1.43Z"/><path d="M1787.91,127.53v33.58h-5.84V127.53Zm-2.41,13.14h24.82v5.48H1785.5Zm26.87-13.14v33.58h-5.84V127.53Z"/><path d="M1823.68,163.67l.37-8.4L1851.79,125l-.37,8.39Zm5.84-8-5.84,8V127.53h5.84Zm22.27,5.47H1846V133l5.84-8Z"/><path d="M1861.5,161.11l12.41-17.52h6.42l-12.41,17.52Zm24.31-13.43h-10.44a18.25,18.25,0,0,1-6.25-1,9.09,9.09,0,0,1-4.41-3.25,11.32,11.32,0,0,1,0-11.64,9.2,9.2,0,0,1,4.41-3.21,18,18,0,0,1,6.25-1h10.44v5.11h-10.44a10,10,0,0,0-3.54.55,4.44,4.44,0,0,0-2.16,1.64,5.64,5.64,0,0,0,0,5.55,4.38,4.38,0,0,0,2.16,1.64,9.75,9.75,0,0,0,3.54.55h10.44Zm-2.41,13.43V127.53h5.84v33.58Z"/><path d="M1286.48,233.11v6.57h-6.2v-12h41.61v12h-5.84v-6.57Zm4.75-2.19h-6.57L1301.08,197l16.43,33.94h-6.57l-9.86-21.31Z"/><path d="M1360.07,233.11h-5.84V205h-17.16v16.42a15.6,15.6,0,0,1-1.2,6.54,8,8,0,0,1-3.69,3.87,13.68,13.68,0,0,1-6.28,1.27v-5.33a5.49,5.49,0,0,0,3.76-1.38c1-.93,1.57-2.58,1.57-5v-21.9h28.84Z"/><path d="M1369.78,233.11l12.41-17.52h6.42l-12.41,17.52Zm24.31-13.43h-10.44a18.25,18.25,0,0,1-6.25-1,9.09,9.09,0,0,1-4.41-3.25,11.32,11.32,0,0,1,0-11.64,9.2,9.2,0,0,1,4.41-3.21,18,18,0,0,1,6.25-1h10.44v5.11h-10.44a10,10,0,0,0-3.54.55,4.44,4.44,0,0,0-2.16,1.64,5.64,5.64,0,0,0,0,5.55,4.38,4.38,0,0,0,2.16,1.64,9.78,9.78,0,0,0,3.54.55h10.44Zm-2.41,13.43V199.53h5.84v33.58Z"/><path d="M1432.19,233.11v6.57H1426v-12h41.62v12h-5.84v-6.57Zm4.75-2.19h-6.58L1446.79,197l16.43,33.94h-6.58l-9.85-21.31Z"/><path d="M1477.16,212.82h22.41a12.09,12.09,0,0,0-1.43-4.64A8.21,8.21,0,0,0,1495,205a10,10,0,0,0-4.93-1.13,11.53,11.53,0,0,0-5.33,1.24,9.61,9.61,0,0,0-3.83,3.54,10.15,10.15,0,0,0-1.43,5.44l-.14,2.19a15,15,0,0,0,1.31,6.57,9.27,9.27,0,0,0,3.72,4.09,11.2,11.2,0,0,0,5.7,1.39,11.92,11.92,0,0,0,4.41-.77,11.52,11.52,0,0,0,3.47-2.12,13.31,13.31,0,0,0,2.63-3.17l4.75,3a25.15,25.15,0,0,1-3.73,4.49,14.2,14.2,0,0,1-5,3,21.81,21.81,0,0,1-7.3,1.05,15,15,0,0,1-8.14-2.26,15.83,15.83,0,0,1-5.69-6.24,19.14,19.14,0,0,1-2.09-9c0-.63,0-1.24.08-1.82s.12-1.17.22-1.75a17.88,17.88,0,0,1,2.92-7.3,14.93,14.93,0,0,1,5.65-4.89,17,17,0,0,1,7.78-1.76,16,16,0,0,1,8.32,2.12,14.44,14.44,0,0,1,5.55,6,19.85,19.85,0,0,1,2,9.16v.88a6.38,6.38,0,0,1-.07.87h-28.69Z"/><path d="M1528.55,199.53V205h-19.71v-5.48Zm-6.94,1.46v32.12h-5.84V201Z"/><path d="M1534.1,212.82h22.41a12.09,12.09,0,0,0-1.43-4.64A8.21,8.21,0,0,0,1552,205a10,10,0,0,0-4.93-1.13,11.53,11.53,0,0,0-5.33,1.24,9.61,9.61,0,0,0-3.83,3.54,10.15,10.15,0,0,0-1.43,5.44l-.14,2.19a15,15,0,0,0,1.31,6.57,9.27,9.27,0,0,0,3.72,4.09,11.2,11.2,0,0,0,5.7,1.39,11.92,11.92,0,0,0,4.41-.77,11.52,11.52,0,0,0,3.47-2.12,13.31,13.31,0,0,0,2.63-3.17l4.74,3a25.1,25.1,0,0,1-3.72,4.49,14.2,14.2,0,0,1-5,3,21.81,21.81,0,0,1-7.3,1.05,15,15,0,0,1-8.14-2.26,15.93,15.93,0,0,1-5.7-6.24,19.25,19.25,0,0,1-2.08-9c0-.63,0-1.24.08-1.82a17.07,17.07,0,0,1,.22-1.75,17.88,17.88,0,0,1,2.92-7.3,14.93,14.93,0,0,1,5.65-4.89,17,17,0,0,1,7.78-1.76,16.06,16.06,0,0,1,8.32,2.12,14.44,14.44,0,0,1,5.55,6,19.85,19.85,0,0,1,2,9.16v.88a6.38,6.38,0,0,1-.07.87H1534.1Z"/><path d="M1571.25,235.67l.37-8.4L1599.36,197l-.37,8.39Zm5.84-8-5.84,8V199.53h5.84Zm2.05-45.26a6.13,6.13,0,0,0,.51,2.22,5.12,5.12,0,0,0,1.9,2.27,8.41,8.41,0,0,0,7.88,0,5.19,5.19,0,0,0,1.9-2.27,6.13,6.13,0,0,0,.51-2.22H1597a10,10,0,0,1-1.28,4.85,9.88,9.88,0,0,1-3.83,3.87,14.42,14.42,0,0,1-12.81,0,9.86,9.86,0,0,1-3.87-3.87,10.14,10.14,0,0,1-1.28-4.85Zm20.22,50.73h-5.84V205l5.84-8Z"/></svg>