<svg preserveAspectRatio="none" width="268" height="29" viewBox="0 0 268 29" fill="none" xmlns="http://www.w3.org/2000/svg">
<path d="M6.71991 27.6382C39.8768 26.8055 73.0372 26.3395 106.201 26.2401C139.193 26.1429 172.185 26.4069 205.178 27.0323C223.804 27.3898 242.428 27.8593 261.053 28.4408C264.402 28.5468 267.528 22.2767 267.293 15.3587C267.049 8.18616 264.329 2.5392 260.74 2.43065C227.567 1.38474 194.398 0.709132 161.231 0.403828C128.239 0.0964076 95.2518 0.152056 62.2677 0.570774C43.6476 0.794908 25.0273 1.14731 6.40682 1.62798C3.06235 1.71159 -0.0728239 7.6675 0.166561 14.7101C0.405946 21.7526 3.13556 27.7247 6.71991 27.6382Z" fill="#01FAD0"/>
</svg>
