<svg preserveAspectRatio="none" width="562" height="30" viewBox="0 0 562 30" fill="none" xmlns="http://www.w3.org/2000/svg">
<path d="M14.3493 29.6749C83.9081 28.4195 153.47 27.5308 223.034 27.0088C292.236 26.4911 361.436 26.3346 430.632 26.5396C469.695 26.6597 508.755 26.8919 547.813 27.2362C554.837 27.2995 561.476 20.9886 561.072 14.0726C560.654 6.90198 555.022 1.28882 547.494 1.22601C477.927 0.602731 408.361 0.349779 338.796 0.467155C269.599 0.58017 200.406 1.05627 131.214 1.89544C92.1552 2.35693 53.0938 2.94671 14.0303 3.66477C7.01401 3.79103 0.360521 9.78781 0.771193 16.8284C1.18187 23.869 6.8298 29.8071 14.3493 29.6749Z" fill="#01FAD0"/>
</svg>
