<svg width="28" height="18" viewBox="0 0 28 18" fill="none" xmlns="http://www.w3.org/2000/svg">
<path d="M26.0737 14.2544C24.9542 12.5148 23.6441 10.9023 22.1671 9.4458C22.1402 9.41268 22.1256 9.37151 22.1256 9.32908C22.1256 9.28665 22.1402 9.24549 22.1671 9.21237C23.4381 7.49995 24.5614 5.68531 25.525 3.78754C25.6645 3.51598 25.7307 3.21358 25.7175 2.90942C25.7042 2.60527 25.6119 2.3096 25.4494 2.05085C25.3012 1.78787 25.0845 1.56873 24.8217 1.41608C24.559 1.26342 24.2597 1.18279 23.9549 1.18251H21.1172C20.7571 1.18941 20.4064 1.29763 20.1065 1.49445C19.8066 1.69128 19.5698 1.96853 19.424 2.29362C18.5998 4.09302 17.612 5.81497 16.4728 7.43833V2.86318C16.474 2.64212 16.4309 2.42302 16.3457 2.21855C16.2606 2.01408 16.1353 1.82832 15.9769 1.672C15.8185 1.51569 15.6303 1.39194 15.4232 1.30792C15.2161 1.2239 14.9941 1.18127 14.7702 1.18251H10.6271C10.3859 1.18621 10.1504 1.25487 9.94581 1.38107C9.74126 1.50728 9.57552 1.68623 9.46648 1.89862C9.35744 2.11101 9.30923 2.34877 9.32708 2.58622C9.34492 2.82367 9.42812 3.05181 9.56771 3.246L9.94607 3.76887C10.149 4.05658 10.2579 4.39868 10.2582 4.74926V8.33469C9.00958 6.5113 8.01682 4.5294 7.30701 2.44301C7.17902 2.07536 6.93797 1.7563 6.6175 1.53034C6.29702 1.30438 5.91309 1.18279 5.51926 1.18251H3.2018C2.95557 1.18541 2.71318 1.24314 2.49269 1.35138C2.2722 1.45962 2.0793 1.61558 1.92837 1.80765C1.77743 1.99972 1.67236 2.22293 1.62098 2.46066C1.5696 2.69838 1.57323 2.94449 1.63161 3.18064C2.90857 8.53077 5.58547 12.9659 8.98125 15.3188C9.18477 15.4615 9.43718 15.519 9.68347 15.4788C9.92976 15.4386 10.15 15.3039 10.2961 15.104C10.3691 15.0043 10.4215 14.8912 10.4501 14.7713C10.4787 14.6515 10.483 14.5273 10.4628 14.4058C10.4426 14.2843 10.3982 14.1679 10.3323 14.0634C10.2663 13.9589 10.1801 13.8683 10.0785 13.7969C7.10837 11.7427 4.74362 7.83049 3.54233 3.04992H5.52872C6.39917 5.66046 7.71037 8.10699 9.40691 10.2861C9.60299 10.5334 9.87304 10.7135 10.1787 10.8006C10.4843 10.8878 10.81 10.8777 11.1095 10.7717C11.4168 10.6659 11.6826 10.4675 11.8694 10.2044C12.0561 9.94131 12.1543 9.62694 12.15 9.30574V4.74926C12.152 4.15571 12.0024 3.57124 11.7149 3.04992H14.5526V8.11994C14.5492 8.48272 14.6669 8.83652 14.8874 9.12676C15.1079 9.41699 15.4191 9.62754 15.7728 9.72591C16.116 9.83866 16.4874 9.83665 16.8293 9.7202C17.1713 9.60374 17.4648 9.37933 17.6646 9.08165C19.0082 7.1896 20.1553 5.16883 21.0888 3.04992H23.7373C22.8357 4.79975 21.7951 6.47632 20.6253 8.06391C20.3303 8.45345 20.1871 8.93472 20.2218 9.41985C20.2566 9.90498 20.4669 10.3616 20.8145 10.7063C22.1941 12.0786 23.4358 13.5795 24.5224 15.1881H21.3536C20.3761 13.5908 19.0634 12.2186 17.5038 11.1638C17.2698 10.9946 16.9925 10.8935 16.7032 10.872C16.4139 10.8506 16.1244 10.9096 15.8674 11.0424C15.6032 11.1759 15.3818 11.3794 15.2281 11.6301C15.0744 11.8807 14.9944 12.1687 14.9972 12.4617V14.6839C15.0023 14.8136 14.9557 14.9401 14.8672 15.0362C14.7787 15.1323 14.6555 15.1902 14.5242 15.1974H13.7108C13.4599 15.1974 13.2193 15.2958 13.0419 15.4709C12.8645 15.646 12.7649 15.8835 12.7649 16.1311C12.7649 16.3788 12.8645 16.6162 13.0419 16.7914C13.2193 16.9665 13.4599 17.0648 13.7108 17.0648H14.5242C14.8381 17.0624 15.1483 16.9988 15.4372 16.8777C15.7261 16.7566 15.9879 16.5804 16.2076 16.3592C16.4273 16.138 16.6006 15.8761 16.7175 15.5886C16.8345 15.3011 16.8927 14.9937 16.889 14.6839V13.0312C18.0268 13.8761 18.9901 14.9284 19.7267 16.1311C19.8893 16.4093 20.1219 16.6414 20.4019 16.805C20.6819 16.9685 20.9999 17.058 21.3253 17.0648H24.5224C24.8493 17.0656 25.1704 16.9793 25.4518 16.815C25.7331 16.6506 25.9643 16.4144 26.121 16.1311C26.2816 15.842 26.3619 15.5161 26.3536 15.1865C26.3453 14.8568 26.2487 14.5352 26.0737 14.2544Z" fill="#141E2D"/>
</svg>
